<?xml version="1.0" encoding="UTF-8"?>
<svg xmlns="http://www.w3.org/2000/svg" width="512" height="512" viewBox="0 0 128 128"><g><path d="M86.8,33.205a1.752,1.752,0,0,0-1.237-.513H34.442a1.751,1.751,0,0,0-1.75,1.75V85.558a1.752,1.752,0,0,0,.513,1.237l8,8a1.75,1.75,0,0,0,1.237.513H93.558a1.751,1.751,0,0,0,1.75-1.75V42.442a1.752,1.752,0,0,0-.513-1.237Zm-43.628,58.6-6.975-6.975V65.75h10.55A1.75,1.75,0,0,0,48.492,64V54.143h9.04a6.708,6.708,0,1,0,0-3.5H46.742a1.749,1.749,0,0,0-1.75,1.75V62.25h-8.8V36.192H84.833l6.975,6.975V62.25H81.258A1.75,1.75,0,0,0,79.508,64v9.857h-9.04a6.708,6.708,0,1,0,0,3.5h10.79a1.749,1.749,0,0,0,1.75-1.75V65.75h8.8V91.808ZM60.792,52.393A3.208,3.208,0,1,1,64,55.6,3.212,3.212,0,0,1,60.792,52.393Zm6.416,23.214A3.208,3.208,0,1,1,64,72.4,3.212,3.212,0,0,1,67.208,75.607Z"/><path d="M121,50.971a1.75,1.75,0,0,0,0-3.5H110.087V36.192H121a1.75,1.75,0,0,0,0-3.5H110.087V24.163a6.257,6.257,0,0,0-6.25-6.25H95.308V7a1.75,1.75,0,0,0-3.5,0V17.913H80.529V7a1.75,1.75,0,0,0-3.5,0V17.913H65.75V7a1.75,1.75,0,0,0-3.5,0V17.913H50.971V7a1.75,1.75,0,0,0-3.5,0V17.913H36.192V7a1.75,1.75,0,0,0-3.5,0V17.913H24.163a6.257,6.257,0,0,0-6.25,6.25v8.529H7a1.75,1.75,0,0,0,0,3.5H17.913V47.471H7a1.75,1.75,0,0,0,0,3.5H17.913V62.25H7a1.75,1.75,0,0,0,0,3.5H17.913V77.029H7a1.75,1.75,0,0,0,0,3.5H17.913V91.808H7a1.75,1.75,0,0,0,0,3.5H17.913v8.529a6.257,6.257,0,0,0,6.25,6.25h8.529V121a1.75,1.75,0,0,0,3.5,0V110.087H47.471V121a1.75,1.75,0,0,0,3.5,0V110.087H62.25V121a1.75,1.75,0,0,0,3.5,0V110.087H77.029V121a1.75,1.75,0,0,0,3.5,0V110.087H91.808V121a1.75,1.75,0,0,0,3.5,0V110.087h8.529a6.257,6.257,0,0,0,6.25-6.25V95.308H121a1.75,1.75,0,0,0,0-3.5H110.087V80.529H121a1.75,1.75,0,0,0,0-3.5H110.087V65.75H121a1.75,1.75,0,0,0,0-3.5H110.087V50.971Zm-14.413,52.866a2.754,2.754,0,0,1-2.75,2.75H24.163a2.753,2.753,0,0,1-2.75-2.75V24.163a2.753,2.753,0,0,1,2.75-2.75h79.674a2.754,2.754,0,0,1,2.75,2.75Z"/></g></svg>
